<svg width="512" height="512" viewBox="0 0 512 512" fill="none" xmlns="http://www.w3.org/2000/svg">
  <rect width="512" height="512" rx="120" fill="#4F46E5"/>
  <path d="M340 180C310 150 260 150 230 180L180 230C200 225 220 227 240 235L270 205C282 193 302 193 314 205C326 217 326 237 314 249L275 288L250 313C238 325 218 325 206 313L175 344C183 352 192 358 202 362C228 372 258 368 280 350C282 348 284 346 286 344L340 290L375 255C405 225 405 175 375 145" fill="white" fill-opacity="0.9"/>
  <path d="M172 332C202 362 252 362 282 332L332 282C312 287 292 285 272 277L242 307C230 319 210 319 198 307C186 295 186 275 198 263L237 224L262 199C274 187 294 187 306 199L337 168C329 160 320 154 310 150C284 140 254 144 232 162C230 164 228 166 226 168L172 222L137 257C107 287 107 337 137 367" fill="white"/>
</svg>
